<!-- Generated by IcoMoon.io -->
<svg version="1.1" xmlns="http://www.w3.org/2000/svg" width="32" height="32" viewBox="0 0 32 32">
<path fill="#fff" d="M16 0c-8.8 0-16 7.2-16 16 0 7.488 5.248 14.304 12.24 16v-5.296c-0.688 0.144-1.328 0.144-2.032-0.064-0.944-0.272-1.712-0.896-2.288-1.856-0.368-0.624-1.008-1.28-1.68-1.232l-0.16-1.872c1.456-0.128 2.704 0.88 3.456 2.144 0.336 0.56 0.72 0.88 1.2 1.024s0.992 0.080 1.584-0.128c0.144-1.2 0.688-1.632 1.088-2.256v0c-4.16-0.624-5.824-2.832-6.48-4.592-0.88-2.304-0.4-5.2 1.136-7.040 0.032-0.032 0.080-0.128 0.064-0.192-0.704-2.128 0.16-3.904 0.192-4.096 0.816 0.24 0.944-0.24 3.552 1.344l0.448 0.272c0.192 0.112 0.128 0.048 0.32 0.032 1.072-0.304 2.224-0.464 3.344-0.48 1.152 0.016 2.288 0.176 3.408 0.48l0.144 0.016c0 0 0.048 0 0.128-0.048 3.248-1.968 3.136-1.328 4-1.616 0.032 0.192 0.896 1.984 0.192 4.096-0.096 0.288 2.816 2.96 1.2 7.232-0.656 1.76-2.32 3.968-6.48 4.592v0c0.528 0.8 1.168 1.248 1.168 2.928v6.608c6.992-1.696 12.24-8.512 12.24-16 0.016-8.8-7.2-16-15.984-16v0z"></path>
</svg>
